<?xml version="1.0" ?>
<svg xmlns="http://www.w3.org/2000/svg" viewBox="-1 -1 606 473" preserveAspectRatio="xMidYMid meet">
  <rect x="387" y="26" width="15" height="13" fill="white" stroke="black" stroke-width="0.5" data-value="1F-B1-8-1" class="cell"/>
  <rect x="402" y="26" width="15" height="13" fill="white" stroke="black" stroke-width="0.5" data-value="1F-B2-1-1" class="cell"/>
  <rect x="437" y="26" width="15" height="13" fill="white" stroke="black" stroke-width="0.5" data-value="1F-B2-20-1" class="cell"/>
  <rect x="452" y="26" width="5" height="13" fill="white" stroke="black" stroke-width="0.5" data-value="1F-B3-1-102" class="cell"/>
  <rect x="457" y="26" width="10" height="13" fill="white" stroke="black" stroke-width="0.5" data-value="1F-B3-1-101" class="cell"/>
  <rect x="487" y="26" width="10" height="13" fill="white" stroke="black" stroke-width="0.5" data-value="1F-B3-18-101" class="cell"/>
  <rect x="497" y="26" width="5" height="13" fill="white" stroke="black" stroke-width="0.5" data-value="1F-B3-18-102" class="cell"/>
  <rect x="502" y="26" width="5" height="13" fill="white" stroke="black" stroke-width="0.5" data-value="1F-B4-1-102" class="cell"/>
  <rect x="507" y="26" width="10" height="13" fill="white" stroke="black" stroke-width="0.5" data-value="1F-B4-1-101" class="cell"/>
  <rect x="537" y="26" width="10" height="13" fill="white" stroke="black" stroke-width="0.5" data-value="1F-B4-20-101" class="cell"/>
  <rect x="547" y="26" width="5" height="13" fill="white" stroke="black" stroke-width="0.5" data-value="1F-B4-20-102" class="cell"/>
  <rect x="552" y="26" width="15" height="13" fill="white" stroke="black" stroke-width="0.5" data-value="1F-B5-1-1" class="cell"/>
  <rect x="387" y="39" width="15" height="13" fill="white" stroke="black" stroke-width="0.5" data-value="1F-B1-7-1" class="cell"/>
  <rect x="402" y="39" width="15" height="13" fill="white" stroke="black" stroke-width="0.5" data-value="1F-B2-2-1" class="cell"/>
  <rect x="437" y="39" width="15" height="13" fill="white" stroke="black" stroke-width="0.5" data-value="1F-B2-19-1" class="cell"/>
  <rect x="452" y="39" width="5" height="13" fill="white" stroke="black" stroke-width="0.5" data-value="1F-B3-2-102" class="cell"/>
  <rect x="457" y="39" width="10" height="13" fill="white" stroke="black" stroke-width="0.5" data-value="1F-B3-2-101" class="cell"/>
  <rect x="487" y="39" width="10" height="13" fill="white" stroke="black" stroke-width="0.5" data-value="1F-B3-17-101" class="cell"/>
  <rect x="497" y="39" width="5" height="13" fill="white" stroke="black" stroke-width="0.5" data-value="1F-B3-17-102" class="cell"/>
  <rect x="502" y="39" width="5" height="13" fill="white" stroke="black" stroke-width="0.5" data-value="1F-B4-2-102" class="cell"/>
  <rect x="507" y="39" width="10" height="13" fill="white" stroke="black" stroke-width="0.5" data-value="1F-B4-2-101" class="cell"/>
  <rect x="537" y="39" width="10" height="13" fill="white" stroke="black" stroke-width="0.5" data-value="1F-B4-19-101" class="cell"/>
  <rect x="547" y="39" width="5" height="13" fill="white" stroke="black" stroke-width="0.5" data-value="1F-B4-19-102" class="cell"/>
  <rect x="552" y="39" width="15" height="13" fill="white" stroke="black" stroke-width="0.5" data-value="1F-B5-2-1" class="cell"/>
  <rect x="387" y="52" width="15" height="13" fill="white" stroke="black" stroke-width="0.5" data-value="1F-B1-6-1" class="cell"/>
  <rect x="402" y="52" width="5" height="13" fill="white" stroke="black" stroke-width="0.5" data-value="1F-B2-3-102" class="cell"/>
  <rect x="407" y="52" width="10" height="13" fill="white" stroke="black" stroke-width="0.5" data-value="1F-B2-3-101" class="cell"/>
  <rect x="437" y="52" width="10" height="13" fill="white" stroke="black" stroke-width="0.5" data-value="1F-B2-18-101" class="cell"/>
  <rect x="447" y="52" width="5" height="13" fill="white" stroke="black" stroke-width="0.5" data-value="1F-B2-18-102" class="cell"/>
  <rect x="452" y="52" width="5" height="13" fill="white" stroke="black" stroke-width="0.5" data-value="1F-B3-3-102" class="cell"/>
  <rect x="457" y="52" width="10" height="13" fill="white" stroke="black" stroke-width="0.5" data-value="1F-B3-3-101" class="cell"/>
  <rect x="487" y="52" width="10" height="13" fill="white" stroke="black" stroke-width="0.5" data-value="1F-B3-16-101" class="cell"/>
  <rect x="497" y="52" width="5" height="13" fill="white" stroke="black" stroke-width="0.5" data-value="1F-B3-16-102" class="cell"/>
  <rect x="502" y="52" width="5" height="13" fill="white" stroke="black" stroke-width="0.5" data-value="1F-B4-3-102" class="cell"/>
  <rect x="507" y="52" width="10" height="13" fill="white" stroke="black" stroke-width="0.5" data-value="1F-B4-3-101" class="cell"/>
  <rect x="537" y="52" width="10" height="13" fill="white" stroke="black" stroke-width="0.5" data-value="1F-B4-18-101" class="cell"/>
  <rect x="547" y="52" width="5" height="13" fill="white" stroke="black" stroke-width="0.5" data-value="1F-B4-18-102" class="cell"/>
  <rect x="552" y="52" width="15" height="13" fill="white" stroke="black" stroke-width="0.5" data-value="1F-B5-3-1" class="cell"/>
  <rect x="387" y="65" width="15" height="13" fill="white" stroke="black" stroke-width="0.5" data-value="1F-B1-5-1" class="cell"/>
  <rect x="402" y="65" width="5" height="13" fill="white" stroke="black" stroke-width="0.5" data-value="1F-B2-4-102" class="cell"/>
  <rect x="407" y="65" width="10" height="13" fill="white" stroke="black" stroke-width="0.5" data-value="1F-B2-4-101" class="cell"/>
  <rect x="437" y="65" width="10" height="13" fill="white" stroke="black" stroke-width="0.5" data-value="1F-B2-17-101" class="cell"/>
  <rect x="447" y="65" width="5" height="13" fill="white" stroke="black" stroke-width="0.5" data-value="1F-B2-17-102" class="cell"/>
  <rect x="452" y="65" width="5" height="13" fill="white" stroke="black" stroke-width="0.5" data-value="1F-B3-4-102" class="cell"/>
  <rect x="457" y="65" width="10" height="13" fill="white" stroke="black" stroke-width="0.5" data-value="1F-B3-4-101" class="cell"/>
  <rect x="487" y="65" width="10" height="13" fill="white" stroke="black" stroke-width="0.5" data-value="1F-B3-15-101" class="cell"/>
  <rect x="497" y="65" width="5" height="13" fill="white" stroke="black" stroke-width="0.5" data-value="1F-B3-15-102" class="cell"/>
  <rect x="502" y="65" width="5" height="13" fill="white" stroke="black" stroke-width="0.5" data-value="1F-B4-4-102" class="cell"/>
  <rect x="507" y="65" width="10" height="13" fill="white" stroke="black" stroke-width="0.5" data-value="1F-B4-4-101" class="cell"/>
  <rect x="537" y="65" width="10" height="13" fill="white" stroke="black" stroke-width="0.5" data-value="1F-B4-17-101" class="cell"/>
  <rect x="547" y="65" width="5" height="13" fill="white" stroke="black" stroke-width="0.5" data-value="1F-B4-17-102" class="cell"/>
  <rect x="552" y="65" width="15" height="13" fill="white" stroke="black" stroke-width="0.5" data-value="1F-B5-4-1" class="cell"/>
  <rect x="402" y="78" width="5" height="13" fill="white" stroke="black" stroke-width="0.5" data-value="1F-B2-5-102" class="cell"/>
  <rect x="407" y="78" width="10" height="13" fill="white" stroke="black" stroke-width="0.5" data-value="1F-B2-5-101" class="cell"/>
  <rect x="437" y="78" width="10" height="13" fill="white" stroke="black" stroke-width="0.5" data-value="1F-B2-16-101" class="cell"/>
  <rect x="447" y="78" width="5" height="13" fill="white" stroke="black" stroke-width="0.5" data-value="1F-B2-16-102" class="cell"/>
  <rect x="452" y="78" width="5" height="13" fill="white" stroke="black" stroke-width="0.5" data-value="1F-B3-5-102" class="cell"/>
  <rect x="457" y="78" width="10" height="13" fill="white" stroke="black" stroke-width="0.5" data-value="1F-B3-5-101" class="cell"/>
  <rect x="502" y="78" width="5" height="13" fill="white" stroke="black" stroke-width="0.5" data-value="1F-B4-5-102" class="cell"/>
  <rect x="507" y="78" width="10" height="13" fill="white" stroke="black" stroke-width="0.5" data-value="1F-B4-5-101" class="cell"/>
  <rect x="537" y="78" width="10" height="13" fill="white" stroke="black" stroke-width="0.5" data-value="1F-B4-16-101" class="cell"/>
  <rect x="547" y="78" width="5" height="13" fill="white" stroke="black" stroke-width="0.5" data-value="1F-B4-16-102" class="cell"/>
  <rect x="552" y="78" width="15" height="13" fill="white" stroke="black" stroke-width="0.5" data-value="1F-B5-5-1" class="cell"/>
  <rect x="402" y="91" width="5" height="13" fill="white" stroke="black" stroke-width="0.5" data-value="1F-B2-6-102" class="cell"/>
  <rect x="407" y="91" width="10" height="13" fill="white" stroke="black" stroke-width="0.5" data-value="1F-B2-6-101" class="cell"/>
  <rect x="437" y="91" width="10" height="13" fill="white" stroke="black" stroke-width="0.5" data-value="1F-B2-15-101" class="cell"/>
  <rect x="447" y="91" width="5" height="13" fill="white" stroke="black" stroke-width="0.5" data-value="1F-B2-15-102" class="cell"/>
  <rect x="452" y="91" width="5" height="13" fill="white" stroke="black" stroke-width="0.5" data-value="1F-B3-6-102" class="cell"/>
  <rect x="457" y="91" width="10" height="13" fill="white" stroke="black" stroke-width="0.5" data-value="1F-B3-6-101" class="cell"/>
  <rect x="502" y="91" width="5" height="13" fill="white" stroke="black" stroke-width="0.5" data-value="1F-B4-6-102" class="cell"/>
  <rect x="507" y="91" width="10" height="13" fill="white" stroke="black" stroke-width="0.5" data-value="1F-B4-6-101" class="cell"/>
  <rect x="537" y="91" width="10" height="13" fill="white" stroke="black" stroke-width="0.5" data-value="1F-B4-15-101" class="cell"/>
  <rect x="547" y="91" width="5" height="13" fill="white" stroke="black" stroke-width="0.5" data-value="1F-B4-15-102" class="cell"/>
  <rect x="552" y="91" width="15" height="13" fill="white" stroke="black" stroke-width="0.5" data-value="1F-B5-6-1" class="cell"/>
  <rect x="387" y="104" width="15" height="13" fill="white" stroke="black" stroke-width="0.5" data-value="1F-B1-4-1" class="cell"/>
  <rect x="402" y="104" width="5" height="13" fill="white" stroke="black" stroke-width="0.5" data-value="1F-B2-7-102" class="cell"/>
  <rect x="407" y="104" width="10" height="13" fill="white" stroke="black" stroke-width="0.5" data-value="1F-B2-7-101" class="cell"/>
  <rect x="437" y="104" width="10" height="13" fill="white" stroke="black" stroke-width="0.5" data-value="1F-B2-14-101" class="cell"/>
  <rect x="447" y="104" width="5" height="13" fill="white" stroke="black" stroke-width="0.5" data-value="1F-B2-14-102" class="cell"/>
  <rect x="452" y="104" width="5" height="13" fill="white" stroke="black" stroke-width="0.5" data-value="1F-B3-7-102" class="cell"/>
  <rect x="457" y="104" width="10" height="13" fill="white" stroke="black" stroke-width="0.5" data-value="1F-B3-7-101" class="cell"/>
  <rect x="487" y="104" width="10" height="13" fill="white" stroke="black" stroke-width="0.5" data-value="1F-B3-14-101" class="cell"/>
  <rect x="497" y="104" width="5" height="13" fill="white" stroke="black" stroke-width="0.5" data-value="1F-B3-14-102" class="cell"/>
  <rect x="502" y="104" width="5" height="13" fill="white" stroke="black" stroke-width="0.5" data-value="1F-B4-7-102" class="cell"/>
  <rect x="507" y="104" width="10" height="13" fill="white" stroke="black" stroke-width="0.5" data-value="1F-B4-7-101" class="cell"/>
  <rect x="537" y="104" width="10" height="13" fill="white" stroke="black" stroke-width="0.5" data-value="1F-B4-14-101" class="cell"/>
  <rect x="547" y="104" width="5" height="13" fill="white" stroke="black" stroke-width="0.5" data-value="1F-B4-14-102" class="cell"/>
  <rect x="552" y="104" width="15" height="13" fill="white" stroke="black" stroke-width="0.5" data-value="1F-B5-7-1" class="cell"/>
  <rect x="387" y="117" width="15" height="13" fill="white" stroke="black" stroke-width="0.5" data-value="1F-B1-3-1" class="cell"/>
  <rect x="402" y="117" width="5" height="13" fill="white" stroke="black" stroke-width="0.5" data-value="1F-B2-8-102" class="cell"/>
  <rect x="407" y="117" width="10" height="13" fill="white" stroke="black" stroke-width="0.5" data-value="1F-B2-8-101" class="cell"/>
  <rect x="437" y="117" width="10" height="13" fill="white" stroke="black" stroke-width="0.5" data-value="1F-B2-13-101" class="cell"/>
  <rect x="447" y="117" width="5" height="13" fill="white" stroke="black" stroke-width="0.5" data-value="1F-B2-13-102" class="cell"/>
  <rect x="452" y="117" width="5" height="13" fill="white" stroke="black" stroke-width="0.5" data-value="1F-B3-8-102" class="cell"/>
  <rect x="457" y="117" width="10" height="13" fill="white" stroke="black" stroke-width="0.5" data-value="1F-B3-8-101" class="cell"/>
  <rect x="487" y="117" width="10" height="13" fill="white" stroke="black" stroke-width="0.5" data-value="1F-B3-13-101" class="cell"/>
  <rect x="497" y="117" width="5" height="13" fill="white" stroke="black" stroke-width="0.5" data-value="1F-B3-13-102" class="cell"/>
  <rect x="502" y="117" width="5" height="13" fill="white" stroke="black" stroke-width="0.5" data-value="1F-B4-8-102" class="cell"/>
  <rect x="507" y="117" width="10" height="13" fill="white" stroke="black" stroke-width="0.5" data-value="1F-B4-8-101" class="cell"/>
  <rect x="537" y="117" width="10" height="13" fill="white" stroke="black" stroke-width="0.5" data-value="1F-B4-13-101" class="cell"/>
  <rect x="547" y="117" width="5" height="13" fill="white" stroke="black" stroke-width="0.5" data-value="1F-B4-13-102" class="cell"/>
  <rect x="552" y="117" width="15" height="13" fill="white" stroke="black" stroke-width="0.5" data-value="1F-B5-8-1" class="cell"/>
  <rect x="387" y="130" width="15" height="13" fill="white" stroke="black" stroke-width="0.5" data-value="1F-B1-2-1" class="cell"/>
  <rect x="402" y="130" width="5" height="13" fill="white" stroke="black" stroke-width="0.5" data-value="1F-B2-9-102" class="cell"/>
  <rect x="407" y="130" width="10" height="13" fill="white" stroke="black" stroke-width="0.5" data-value="1F-B2-9-101" class="cell"/>
  <rect x="437" y="130" width="10" height="13" fill="white" stroke="black" stroke-width="0.5" data-value="1F-B2-12-101" class="cell"/>
  <rect x="447" y="130" width="5" height="13" fill="white" stroke="black" stroke-width="0.5" data-value="1F-B2-12-102" class="cell"/>
  <rect x="452" y="130" width="5" height="13" fill="white" stroke="black" stroke-width="0.5" data-value="1F-B3-9-102" class="cell"/>
  <rect x="457" y="130" width="10" height="13" fill="white" stroke="black" stroke-width="0.5" data-value="1F-B3-9-101" class="cell"/>
  <rect x="487" y="130" width="10" height="13" fill="white" stroke="black" stroke-width="0.5" data-value="1F-B3-12-101" class="cell"/>
  <rect x="497" y="130" width="5" height="13" fill="white" stroke="black" stroke-width="0.5" data-value="1F-B3-12-102" class="cell"/>
  <rect x="502" y="130" width="5" height="13" fill="white" stroke="black" stroke-width="0.5" data-value="1F-B4-9-102" class="cell"/>
  <rect x="507" y="130" width="10" height="13" fill="white" stroke="black" stroke-width="0.5" data-value="1F-B4-9-101" class="cell"/>
  <rect x="537" y="130" width="10" height="13" fill="white" stroke="black" stroke-width="0.5" data-value="1F-B4-12-101" class="cell"/>
  <rect x="547" y="130" width="5" height="13" fill="white" stroke="black" stroke-width="0.5" data-value="1F-B4-12-102" class="cell"/>
  <rect x="552" y="130" width="15" height="13" fill="white" stroke="black" stroke-width="0.5" data-value="1F-B5-9-1" class="cell"/>
  <rect x="387" y="143" width="15" height="13" fill="white" stroke="black" stroke-width="0.5" data-value="1F-B1-1-1" class="cell"/>
  <rect x="402" y="143" width="5" height="13" fill="white" stroke="black" stroke-width="0.5" data-value="1F-B2-10-102" class="cell"/>
  <rect x="407" y="143" width="10" height="13" fill="white" stroke="black" stroke-width="0.5" data-value="1F-B2-10-101" class="cell"/>
  <rect x="437" y="143" width="10" height="13" fill="white" stroke="black" stroke-width="0.5" data-value="1F-B2-11-101" class="cell"/>
  <rect x="447" y="143" width="5" height="13" fill="white" stroke="black" stroke-width="0.5" data-value="1F-B2-11-102" class="cell"/>
  <rect x="452" y="143" width="5" height="13" fill="white" stroke="black" stroke-width="0.5" data-value="1F-B3-10-102" class="cell"/>
  <rect x="457" y="143" width="10" height="13" fill="white" stroke="black" stroke-width="0.5" data-value="1F-B3-10-101" class="cell"/>
  <rect x="487" y="143" width="10" height="13" fill="white" stroke="black" stroke-width="0.5" data-value="1F-B3-11-101" class="cell"/>
  <rect x="497" y="143" width="5" height="13" fill="white" stroke="black" stroke-width="0.5" data-value="1F-B3-11-102" class="cell"/>
  <rect x="502" y="143" width="5" height="13" fill="white" stroke="black" stroke-width="0.5" data-value="1F-B4-10-102" class="cell"/>
  <rect x="507" y="143" width="10" height="13" fill="white" stroke="black" stroke-width="0.5" data-value="1F-B4-10-101" class="cell"/>
  <rect x="537" y="143" width="10" height="13" fill="white" stroke="black" stroke-width="0.5" data-value="1F-B4-11-101" class="cell"/>
  <rect x="547" y="143" width="5" height="13" fill="white" stroke="black" stroke-width="0.5" data-value="1F-B4-11-102" class="cell"/>
  <rect x="552" y="143" width="15" height="13" fill="white" stroke="black" stroke-width="0.5" data-value="1F-B5-10-1" class="cell"/>
  <rect x="387" y="192" width="11" height="11" fill="white" stroke="black" stroke-width="0.5" data-value="1F-C1-1-1" class="cell"/>
  <rect x="423" y="192" width="11" height="11" fill="white" stroke="black" stroke-width="0.5" data-value="1F-D1-45-1" class="cell"/>
  <rect x="434" y="192" width="11" height="11" fill="white" stroke="black" stroke-width="0.5" data-value="1F-E1-46-1" class="cell"/>
  <rect x="459" y="192" width="11" height="11" fill="white" stroke="black" stroke-width="0.5" data-value="1F-E1-45-1" class="cell"/>
  <rect x="514" y="192" width="11" height="11" fill="white" stroke="black" stroke-width="0.5" data-value="1F-F2-1-1" class="cell"/>
  <rect x="539" y="192" width="11" height="11" fill="white" stroke="black" stroke-width="0.5" data-value="1F-F2-2-1" class="cell"/>
  <rect x="550" y="192" width="11" height="11" fill="white" stroke="black" stroke-width="0.5" data-value="1F-F3-32-1" class="cell"/>
  <rect x="575" y="202" width="11" height="11" fill="white" stroke="black" stroke-width="0.5" data-value="1F-F3-29-1" class="cell"/>
  <rect x="387" y="203" width="11" height="11" fill="white" stroke="black" stroke-width="0.5" data-value="1F-C1-2-1" class="cell"/>
  <rect x="423" y="203" width="11" height="11" fill="white" stroke="black" stroke-width="0.5" data-value="1F-D1-43-1" class="cell"/>
  <rect x="434" y="203" width="11" height="11" fill="white" stroke="black" stroke-width="0.5" data-value="1F-E1-44-1" class="cell"/>
  <rect x="459" y="203" width="11" height="11" fill="white" stroke="black" stroke-width="0.5" data-value="1F-E1-43-1" class="cell"/>
  <rect x="514" y="203" width="11" height="11" fill="white" stroke="black" stroke-width="0.5" data-value="1F-F2-3-1" class="cell"/>
  <rect x="539" y="203" width="11" height="11" fill="white" stroke="black" stroke-width="0.5" data-value="1F-F2-4-1" class="cell"/>
  <rect x="550" y="203" width="11" height="11" fill="white" stroke="black" stroke-width="0.5" data-value="1F-F3-30-1" class="cell"/>
  <rect x="575" y="213" width="11" height="11" fill="white" stroke="black" stroke-width="0.5" data-value="1F-F3-27-1" class="cell"/>
  <rect x="387" y="214" width="11" height="11" fill="white" stroke="black" stroke-width="0.5" data-value="1F-C1-3-1" class="cell"/>
  <rect x="398" y="214" width="11" height="11" fill="white" stroke="black" stroke-width="0.5" data-value="1F-D1-42-1" class="cell"/>
  <rect x="423" y="214" width="11" height="11" fill="white" stroke="black" stroke-width="0.5" data-value="1F-D1-41-1" class="cell"/>
  <rect x="434" y="214" width="11" height="11" fill="white" stroke="black" stroke-width="0.5" data-value="1F-E1-42-1" class="cell"/>
  <rect x="459" y="214" width="11" height="11" fill="white" stroke="black" stroke-width="0.5" data-value="1F-E1-41-1" class="cell"/>
  <rect x="489" y="214" width="11" height="11" fill="white" stroke="black" stroke-width="0.5" data-value="1F-F1-11-1" class="cell"/>
  <rect x="514" y="214" width="11" height="11" fill="white" stroke="black" stroke-width="0.5" data-value="1F-F2-5-1" class="cell"/>
  <rect x="539" y="214" width="11" height="11" fill="white" stroke="black" stroke-width="0.5" data-value="1F-F2-6-1" class="cell"/>
  <rect x="550" y="214" width="11" height="11" fill="white" stroke="black" stroke-width="0.5" data-value="1F-F3-28-1" class="cell"/>
  <rect x="266" y="224" width="11" height="11" fill="white" stroke="black" stroke-width="0.5" data-value="1F-A0-16-1" class="cell"/>
  <rect x="277" y="224" width="11" height="11" fill="white" stroke="black" stroke-width="0.5" data-value="1F-A0-16-1" class="cell"/>
  <rect x="305" y="224" width="11" height="11" fill="white" stroke="black" stroke-width="0.5" data-value="1F-A0-15-1" class="cell"/>
  <rect x="575" y="224" width="11" height="11" fill="white" stroke="black" stroke-width="0.5" data-value="1F-F3-25-1" class="cell"/>
  <rect x="387" y="225" width="11" height="11" fill="white" stroke="black" stroke-width="0.5" data-value="1F-C1-4-1" class="cell"/>
  <rect x="398" y="225" width="11" height="11" fill="white" stroke="black" stroke-width="0.5" data-value="1F-D1-40-1" class="cell"/>
  <rect x="423" y="225" width="11" height="11" fill="white" stroke="black" stroke-width="0.5" data-value="1F-D1-39-1" class="cell"/>
  <rect x="434" y="225" width="11" height="11" fill="white" stroke="black" stroke-width="0.5" data-value="1F-E1-40-1" class="cell"/>
  <rect x="459" y="225" width="11" height="11" fill="white" stroke="black" stroke-width="0.5" data-value="1F-E1-39-1" class="cell"/>
  <rect x="489" y="225" width="11" height="11" fill="white" stroke="black" stroke-width="0.5" data-value="1F-F1-10-1" class="cell"/>
  <rect x="514" y="225" width="11" height="11" fill="white" stroke="black" stroke-width="0.5" data-value="1F-F2-7-1" class="cell"/>
  <rect x="539" y="225" width="11" height="11" fill="white" stroke="black" stroke-width="0.5" data-value="1F-F2-8-1" class="cell"/>
  <rect x="550" y="225" width="11" height="11" fill="white" stroke="black" stroke-width="0.5" data-value="1F-F3-26-1" class="cell"/>
  <rect x="305" y="235" width="11" height="11" fill="white" stroke="black" stroke-width="0.5" data-value="1F-A0-15-1" class="cell"/>
  <rect x="575" y="235" width="11" height="11" fill="white" stroke="black" stroke-width="0.5" data-value="1F-F3-23-1" class="cell"/>
  <rect x="387" y="236" width="11" height="11" fill="white" stroke="black" stroke-width="0.5" data-value="1F-C1-5-1" class="cell"/>
  <rect x="398" y="236" width="11" height="11" fill="white" stroke="black" stroke-width="0.5" data-value="1F-D1-38-1" class="cell"/>
  <rect x="423" y="236" width="11" height="11" fill="white" stroke="black" stroke-width="0.5" data-value="1F-D1-37-1" class="cell"/>
  <rect x="434" y="236" width="11" height="11" fill="white" stroke="black" stroke-width="0.5" data-value="1F-E1-38-1" class="cell"/>
  <rect x="459" y="236" width="11" height="11" fill="white" stroke="black" stroke-width="0.5" data-value="1F-E1-37-1" class="cell"/>
  <rect x="489" y="236" width="11" height="11" fill="white" stroke="black" stroke-width="0.5" data-value="1F-F1-9-1" class="cell"/>
  <rect x="514" y="236" width="11" height="11" fill="white" stroke="black" stroke-width="0.5" data-value="1F-F2-9-1" class="cell"/>
  <rect x="539" y="236" width="11" height="11" fill="white" stroke="black" stroke-width="0.5" data-value="1F-F2-10-1" class="cell"/>
  <rect x="550" y="236" width="11" height="11" fill="white" stroke="black" stroke-width="0.5" data-value="1F-F3-24-1" class="cell"/>
  <rect x="305" y="246" width="11" height="11" fill="white" stroke="black" stroke-width="0.5" data-value="1F-A0-15-1" class="cell"/>
  <rect x="575" y="246" width="11" height="11" fill="white" stroke="black" stroke-width="0.5" data-value="1F-F3-21-1" class="cell"/>
  <rect x="387" y="247" width="11" height="11" fill="white" stroke="black" stroke-width="0.5" data-value="1F-C1-6-1" class="cell"/>
  <rect x="398" y="247" width="11" height="11" fill="white" stroke="black" stroke-width="0.5" data-value="1F-D1-36-1" class="cell"/>
  <rect x="423" y="247" width="11" height="11" fill="white" stroke="black" stroke-width="0.5" data-value="1F-D1-35-1" class="cell"/>
  <rect x="434" y="247" width="11" height="11" fill="white" stroke="black" stroke-width="0.5" data-value="1F-E1-36-1" class="cell"/>
  <rect x="459" y="247" width="11" height="11" fill="white" stroke="black" stroke-width="0.5" data-value="1F-E1-35-1" class="cell"/>
  <rect x="489" y="247" width="11" height="11" fill="white" stroke="black" stroke-width="0.5" data-value="1F-F1-8-1" class="cell"/>
  <rect x="514" y="247" width="11" height="11" fill="white" stroke="black" stroke-width="0.5" data-value="1F-F2-11-1" class="cell"/>
  <rect x="539" y="247" width="11" height="11" fill="white" stroke="black" stroke-width="0.5" data-value="1F-F2-12-1" class="cell"/>
  <rect x="550" y="247" width="11" height="11" fill="white" stroke="black" stroke-width="0.5" data-value="1F-F3-22-1" class="cell"/>
  <rect x="575" y="257" width="11" height="11" fill="white" stroke="black" stroke-width="0.5" data-value="1F-F3-19-1" class="cell"/>
  <rect x="387" y="258" width="11" height="11" fill="white" stroke="black" stroke-width="0.5" data-value="1F-C1-7-1" class="cell"/>
  <rect x="398" y="258" width="11" height="11" fill="white" stroke="black" stroke-width="0.5" data-value="1F-D1-34-1" class="cell"/>
  <rect x="423" y="258" width="11" height="11" fill="white" stroke="black" stroke-width="0.5" data-value="1F-D1-33-1" class="cell"/>
  <rect x="434" y="258" width="11" height="11" fill="white" stroke="black" stroke-width="0.5" data-value="1F-E1-34-1" class="cell"/>
  <rect x="459" y="258" width="11" height="11" fill="white" stroke="black" stroke-width="0.5" data-value="1F-E1-33-1" class="cell"/>
  <rect x="489" y="258" width="11" height="11" fill="white" stroke="black" stroke-width="0.5" data-value="1F-F1-7-1" class="cell"/>
  <rect x="514" y="258" width="11" height="11" fill="white" stroke="black" stroke-width="0.5" data-value="1F-F2-13-1" class="cell"/>
  <rect x="539" y="258" width="11" height="11" fill="white" stroke="black" stroke-width="0.5" data-value="1F-F2-14-1" class="cell"/>
  <rect x="550" y="258" width="11" height="11" fill="white" stroke="black" stroke-width="0.5" data-value="1F-F3-20-1" class="cell"/>
  <rect x="305" y="268" width="11" height="11" fill="white" stroke="black" stroke-width="0.5" data-value="1F-A0-14-1" class="cell"/>
  <rect x="575" y="268" width="11" height="11" fill="white" stroke="black" stroke-width="0.5" data-value="1F-F3-17-1" class="cell"/>
</svg>
